Coordinates
version=1
nRows=17
nColumns=24
inDegrees=yes

Units are S.I. units (second, meters, Newtons, ...)
Angles are in degrees.

endheader
time	pelvis_tilt	pelvis_list	pelvis_rotation	pelvis_tx	pelvis_ty	pelvis_tz	hip_flexion_r	hip_adduction_r	hip_rotation_r	knee_angle_r	ankle_angle_r	subtalar_angle_r	mtp_angle_r	hip_flexion_l	hip_adduction_l	hip_rotation_l	knee_angle_l	ankle_angle_l	subtalar_angle_l	mtp_angle_l	lumbar_extension	lumbar_bending	lumbar_rotation
      0.84633333	      1.21563618	     -2.02067504	     -0.00967915	     -0.48310129	      1.06996774	      0.35794068	      8.27116230	      7.53659569	     -7.13587554	    -14.03983528	      5.13522706	     -5.83881639	     -0.92451441	     14.70485148	     -4.22077362	     -0.90224796	    -67.56287905	      2.34141576	     -3.97030742	      5.39427266	      3.21901140	      5.36711566	     -1.84538420
      0.85050000	      1.21090917	     -1.88849692	     -0.05679389	     -0.47815199	      1.07064099	      0.35830087	      7.91076748	      7.43079314	     -7.05108029	    -13.90589183	      5.33072836	     -5.80735741	     -0.93795479	     15.23913239	     -4.03837860	     -0.69501893	    -67.34893618	      2.94152234	     -4.10885782	      5.35645873	      3.16041864	      5.18306080	     -1.73204708
      0.85466667	      1.21571150	     -1.76553824	     -0.09610266	     -0.47332303	      1.07127432	      0.35864236	      7.54198086	      7.33541366	     -6.92666103	    -13.76554503	      5.48513135	     -5.76452292	     -0.95052915	     15.76627104	     -3.86097610	     -0.46863815	    -67.08923697	      3.41295848	     -4.17875584	      5.32034291	      3.10871711	      5.02436479	     -1.62997450
      0.85883333	      1.22527650	     -1.64571987	     -0.14011672	     -0.46849337	      1.07190551	      0.35895202	      7.16414102	      7.23807202	     -6.80960675	    -13.61862004	      5.63664547	     -5.72927531	     -0.96327303	     16.27098497	     -3.68190191	     -0.24853566	    -66.76574966	      3.87238640	     -4.23049934	      5.28442523	      3.05498294	      4.86465807	     -1.52935012
      0.86300000	      1.23075498	     -1.53343601	     -0.19190233	     -0.46364354	      1.07250942	      0.35927309	      6.78305812	      7.15083942	     -6.69345344	    -13.45967686	      5.79184601	     -5.69002302	     -0.97786077	     16.76107677	     -3.51497154	     -0.04441091	    -66.38345913	      4.33760206	     -4.25817126	      5.24366190	      3.00419485	      4.71713527	     -1.42350827
      0.86716667	      1.23884349	     -1.43264938	     -0.24725362	     -0.45881659	      1.07307296	      0.35957809	      6.39651352	      7.07367684	     -6.57548715	    -13.29239391	      5.94299325	     -5.64647569	     -0.99419954	     17.23578653	     -3.35712159	      0.15841765	    -65.95011236	      4.77676067	     -4.26140593	      5.19822441	      2.95119571	      4.58824443	     -1.31573460
      0.87133333	      1.26408528	     -1.32480184	     -0.34008823	     -0.45400287	      1.07365536	      0.35985845	      5.99678210	      6.98134558	     -6.48450597	    -13.13997472	      6.11850374	     -5.59479428	     -1.02328829	     17.66549798	     -3.19514756	      0.31258227	    -65.45220265	      5.27467556	     -4.20362235	      5.11884474	      2.85031779	      4.49240423	     -1.17279058
      0.87550000	      1.24008947	     -1.24411661	     -0.38434253	     -0.44921101	      1.07410663	      0.36008170	      5.63774207	      6.91765075	     -6.36162656	    -12.95104290	      6.17224954	     -5.56948921	     -1.02933061	     18.15404217	     -3.04968185	      0.52441042	    -64.90378478	      5.42705648	     -4.21916204	      5.10109174	      2.78618151	      4.43877031	     -1.13499294
      0.87966667	      1.25352279	     -1.19097473	     -0.41195721	     -0.44429396	      1.07459565	      0.36045035	      5.20579023	      6.90427665	     -6.23191725	    -12.70004389	      6.31865605	     -5.53333660	     -1.04397882	     18.57569010	     -2.95224340	      0.71788438	    -64.30954391	      5.82305505	     -4.27573030	      5.06090087	      2.80291522	      4.26911699	     -1.02959353
      0.88383333	      1.26220251	     -1.12323572	     -0.48175985	     -0.43941243	      1.07505210	      0.36071655	      4.79044467	      6.85748503	     -6.11558236	    -12.48290206	      6.45563989	     -5.49781040	     -1.06157132	     18.97678704	     -2.83326303	      0.87096897	    -63.65170361	      6.18252985	     -4.30142379	      5.01343118	      2.75294863	      4.17919542	     -0.93227289
      0.88800000	      1.22108603	     -1.06291896	     -0.55816698	     -0.43462859	      1.07538179	      0.36089748	      4.44721488	      6.80755592	     -6.03436149	    -12.28897163	      6.51600724	     -5.48134096	     -1.06775707	     19.42893424	     -2.71281289	      1.02793102	    -62.94253980	      6.33966286	     -4.31958718	      4.99617122	      2.66834421	      4.17015274	     -0.90196967
      0.89216667	      1.24232523	     -1.03372804	     -0.60137516	     -0.42967436	      1.07579144	      0.36123131	      3.98727326	      6.81493972	     -5.89523277	    -12.00768201	      6.66115307	     -5.43250998	     -1.08350334	     19.78113561	     -2.64259281	      1.18014118	    -62.18230793	      6.69385371	     -4.39647310	      4.95280872	      2.69987467	      4.04823316	     -0.79155025
      0.89633333	      1.24734099	     -0.98646840	     -0.68500186	     -0.42476411	      1.07615100	      0.36148639	      3.55913231	      6.78793274	     -5.77182944	    -11.75763844	      6.78651987	     -5.38830515	     -1.10271389	     20.12586064	     -2.55085460	      1.29454457	    -61.35528859	      6.98178125	     -4.46303919	      4.90069040	      2.65734583	      3.98620035	     -0.68501521
      0.90050000	      1.23815257	     -0.95993652	     -0.75604484	     -0.41987748	      1.07643672	      0.36172167	      3.14373437	      6.78276681	     -5.65614418	    -11.49678928	      6.88833426	     -5.34799664	     -1.12113614	     20.47741174	     -2.47992799	      1.41151675	    -60.48694198	      7.20161389	     -4.54154770	      4.85023759	      2.61579286	      3.94969885	     -0.58910846
      0.90466667	      1.18433239	     -0.93645713	     -0.82527161	     -0.41503051	      1.07661529	      0.36185825	      2.78575317	      6.77012723	     -5.57636236	    -11.25305623	      6.95110915	     -5.32757864	     -1.13042182	     20.86399320	     -2.40118763	      1.53720428	    -59.56629690	      7.34502168	     -4.60291436	      4.82421846	      2.54893742	      3.96190294	     -0.54693631
      0.90883333	      1.21692184	     -0.92660627	     -0.88866942	     -0.41003154	      1.07691205	      0.36216659	      2.29458758	      6.79164918	     -5.43766867	    -10.93598931	      7.06260147	     -5.28375623	     -1.14950452	     21.11844165	     -2.36126320	      1.61751076	    -58.58415269	      7.56726375	     -4.77336295	      4.77046624	      2.59315429	      3.89545352	     -0.43404254
      0.91300000	      1.29179575	     -0.87924134	     -1.05984705	     -0.40513693	      1.07727565	      0.36245625	      1.78438596	      6.75272737	     -5.25816158	    -10.68035735	      7.19745172	     -5.23658816	     -1.20860394	     21.28162860	     -2.29805383	      1.58871711	    -57.50911913	      7.73156810	     -5.10233298	      4.61177685	      2.36710291	      3.80979040	     -0.18144196
